<svg xmlns="http://www.w3.org/2000/svg" xmlns:xlink="http://www.w3.org/1999/xlink" width="60.579" height="81.346"><defs><linearGradient id="a" x1="1.389" y1="1.45" x2=".129" y2="-.175" gradientUnits="objectBoundingBox"><stop offset="0" stop-color="#f9a232"/><stop offset=".206" stop-color="#f9a232"/><stop offset="1" stop-color="#df5d68"/></linearGradient><linearGradient id="b" x1=".558" y1="2.084" x2=".407" y2=".5" gradientUnits="objectBoundingBox"><stop offset="0" stop-color="#f9a232"/><stop offset=".472" stop-color="#f9a232"/><stop offset="1" stop-color="#df5d68"/></linearGradient><linearGradient id="c" x1=".906" y1=".86" x2="-.154" y2=".3" gradientUnits="objectBoundingBox"><stop offset="0" stop-color="#f5944b"/><stop offset="1" stop-color="#e05c68"/></linearGradient><linearGradient id="d" x1="-6.353" y1="9.935" x2="1" gradientUnits="objectBoundingBox"><stop offset="0" stop-color="#ff7649"/><stop offset=".65" stop-color="#b34957"/><stop offset=".91" stop-color="#8b363b"/></linearGradient><linearGradient id="f" x1="-23.779" y1="135.704" x2="-24.091" y2="135.772" gradientUnits="objectBoundingBox"><stop offset="0" stop-color="#f2754c"/><stop offset="1" stop-color="#b34958"/></linearGradient><linearGradient id="g" x1="-27.149" y1="137.304" x2="-27.478" y2="137.371" xlink:href="#f"/><style>.c{fill:#ffb399}.f{fill:#350f2e}.h{fill:#aa3b21}.l{fill:#fff}.m{fill:#33142d}.p{fill:#7f2918}</style></defs><circle cx="24.398" cy="24.398" r="24.398" transform="translate(0 32.549)" fill="#387dff"/><path d="M86.817 87.352S97.5 83.788 102.19 81.5c.849.566 4.252 2.717 3.99 4-1.777 2.088-11.541 9.28-20.97 10.59s1.607-8.738 1.607-8.738z" transform="translate(-45.615 -20.956)" fill="url(#a)"/><path class="c" d="M57.843 59.672a5.388 5.388 0 011.814 2.089 6.873 6.873 0 01.8 2.914 23.627 23.627 0 01-3.961 3.346 18.525 18.525 0 01-2.444-6.357 23.855 23.855 0 003.791-1.992z"/><path class="c" d="M54.739 62.131a1.232 1.232 0 001.027-.848 4.165 4.165 0 00-.19-2.1c-.409-1.235-1.456-1.339-1.423.092a12.779 12.779 0 01-.081 2.384z"/><path d="M47.792 101.937v-.114a6.112 6.112 0 016.108-6.111h17.742a6.114 6.114 0 015.742 4.014 24.057 24.057 0 01-29.592 2.211z" transform="translate(-36.856 -24.659)" fill="url(#b)"/><g transform="translate(1.769)"><path d="M35.393 69.276c3.926-1.369 5.847-4.144 4.844-11.026-1.162-7.957-3.1-31.012 8.582-46.8a3.77 3.77 0 011.543 1.267s-5.08 12.172-.784 36.344a80.222 80.222 0 017.7-3.592s-1.248-19.421 8.582-32.01a3.605 3.605 0 011.474.84S63.022 25.7 66.9 48.071a6.633 6.633 0 016.406 3.535 6.711 6.711 0 01-.7 7.315c3.677-1.1 7.081-2.249 7.081-2.249a1.612 1.612 0 011.3 1.086s-.4 17.51-20.184 21.079c-16.8 3.02-22.472-5.45-22.472-5.45a7.942 7.942 0 003.327-1.039c-2.173.162-5.492-1.229-6.265-3.072z" transform="translate(-35.393 -2.986)" fill="url(#c)"/><path class="f" d="M21.151 3.986S16.367 8.7 14.844 9.88a15.28 15.28 0 01-1.684-1.035A54.361 54.361 0 0114.867 0a16.5 16.5 0 016.284 3.986zm17.391 1.871s-4.745 4.426-6.722 5.9a11.652 11.652 0 00-1.737-.807 67.612 67.612 0 012.118-9.539 27.491 27.491 0 016.341 4.446z"/><g transform="translate(34.002 60.138)" opacity=".5"><ellipse class="h" cx=".461" cy=".434" rx=".461" ry=".434" transform="translate(3.919)"/><ellipse class="h" cx=".461" cy=".434" rx=".461" ry=".434" transform="translate(2.659 3.203)"/><ellipse class="h" cx=".461" cy=".434" rx=".461" ry=".434" transform="translate(0 1.012)"/></g><circle cx="2.585" cy="2.585" r="2.585" transform="translate(10.811 62.862)" style="isolation:isolate" fill="#f8b199" opacity=".5"/><path class="f" d="M44.303 53.727a1.6 1.6 0 011.286 1.07 19.184 19.184 0 01-.69 4.106 9.629 9.629 0 01-5.422-3.638c2.702-.825 4.826-1.538 4.826-1.538z"/><path d="M21.905 37.493a7.43 7.43 0 013.1 3.9l-3.1 1.089a43.147 43.147 0 010-4.989z" style="isolation:isolate" fill="#dc532a" opacity=".5"/><path d="M17.83 44.848c-.148-.512-.3-1.051-.472-1.553a1.1 1.1 0 00-.6-.682 1.067 1.067 0 00-.9.011 30.577 30.577 0 00-7.172 4.84.739.739 0 00-.16.845c.067.142.137.284.211.43a.658.658 0 00.383.334.644.644 0 00.5-.042 52.761 52.761 0 017.714-3.226.786.786 0 00.492-.961zm18.021-.94a42.822 42.822 0 00-8.271-.1.792.792 0 01-.824-.626c-.339-1.423-.227-.947-.4-1.732-.229-1.061.621-1.248 1.427-1.3a20.957 20.957 0 018.4 1.749.857.857 0 01.452.945 5.492 5.492 0 01-.155.624.608.608 0 01-.629.44z" fill="url(#d)"/><ellipse class="l" cx="5.405" cy="5.411" rx="5.405" ry="5.411" transform="translate(10.34 49.143)"/><ellipse class="l" cx="5.405" cy="5.411" rx="5.405" ry="5.411" transform="translate(26.792 46.308)"/><circle class="m" cx="1.645" cy="1.645" r="1.645" transform="translate(15.041 52.902)"/><path d="M50.651 68.523a5.324 5.324 0 013.987-2.347 5.75 5.75 0 014.472 1.553z" transform="translate(-39.37 -17.052)" fill="url(#f)"/><circle class="m" cx="1.645" cy="1.645" r="1.645" transform="translate(31.021 49.595)"/><path d="M72.9 64.709a5.4 5.4 0 018.012-1.03z" transform="translate(-45.17 -16.072)" fill="url(#g)"/><path class="p" d="M26.321 69.036c-3.327 2.068-2.271 3.7-2.271 3.7a8.516 8.516 0 01-5.5-4.015 1.183 1.183 0 01.22-1.631l3.811 1.75z"/><path class="l" d="M22.566 69.01a2.764 2.764 0 00.444 1.647 10.633 10.633 0 003.9 0 4.38 4.38 0 00.347-1.681z"/><path class="p" d="M18.91 66.623s4.008 3.152 8.6 1.548a1.621 1.621 0 01.217.9s-5.145 1.264-8.576-1.538l-.418.26s.752 3 5.445 5.023a3.4 3.4 0 01-.267.863s-4.921-1.655-6.049-6.153z"/></g></svg>