<svg xmlns="http://www.w3.org/2000/svg" xmlns:xlink="http://www.w3.org/1999/xlink" width="60.579" height="81.346" viewBox="0 0 60.579 81.346"><defs><style>.a{fill:#387dff;}.b{fill:url(#a);}.c{fill:#ffb399;}.d{fill:url(#b);}.e{fill:url(#c);}.f{fill:#350f2e;}.g,.i,.j{opacity:0.5;}.h{fill:#aa3b21;}.i{fill:#f8b199;}.i,.j{isolation:isolate;}.j{fill:#dc532a;}.k{fill:url(#d);}.l{fill:#fff;}.m{fill:#33142d;}.n{fill:url(#f);}.o{fill:url(#g);}.p{fill:#7f2918;}</style><linearGradient id="a" x1="1.389" y1="1.45" x2="0.129" y2="-0.175" gradientUnits="objectBoundingBox"><stop offset="0" stop-color="#f9a232"/><stop offset="0.206" stop-color="#f9a232"/><stop offset="1" stop-color="#df5d68"/></linearGradient><linearGradient id="b" x1="0.558" y1="2.084" x2="0.407" y2="0.5" gradientUnits="objectBoundingBox"><stop offset="0" stop-color="#f9a232"/><stop offset="0.472" stop-color="#f9a232"/><stop offset="1" stop-color="#df5d68"/></linearGradient><linearGradient id="c" x1="0.906" y1="0.86" x2="-0.154" y2="0.3" gradientUnits="objectBoundingBox"><stop offset="0" stop-color="#f5944b"/><stop offset="1" stop-color="#e05c68"/></linearGradient><linearGradient id="d" x1="-6.353" y1="9.935" x2="1" gradientUnits="objectBoundingBox"><stop offset="0" stop-color="#ff7649"/><stop offset="0.65" stop-color="#b34957"/><stop offset="0.91" stop-color="#8b363b"/></linearGradient><linearGradient id="f" x1="-23.779" y1="135.704" x2="-24.091" y2="135.772" gradientUnits="objectBoundingBox"><stop offset="0" stop-color="#f2754c"/><stop offset="1" stop-color="#b34958"/></linearGradient><linearGradient id="g" x1="-27.149" y1="137.304" x2="-27.478" y2="137.371" xlink:href="#f"/></defs><circle class="a" cx="24.398" cy="24.398" r="24.398" transform="translate(0 32.549)"/><g transform="translate(35.784 58.234)"><path class="b" d="M86.817,87.352S97.5,83.788,102.19,81.5c.849.566,4.252,2.717,3.99,4-1.777,2.088-11.541,9.28-20.97,10.59S86.817,87.352,86.817,87.352Z" transform="translate(-81.399 -79.19)"/><path class="c" d="M109.9,80.32a5.388,5.388,0,0,1,1.814,2.089,6.873,6.873,0,0,1,.8,2.914,23.627,23.627,0,0,1-3.961,3.346,18.525,18.525,0,0,1-2.444-6.357A23.855,23.855,0,0,0,109.9,80.32Z" transform="translate(-87.841 -78.882)"/><path class="c" d="M106.8,82.272a1.232,1.232,0,0,0,1.027-.848,4.165,4.165,0,0,0-.19-2.1c-.409-1.235-1.456-1.339-1.423.092a12.779,12.779,0,0,1-.081,2.384Z" transform="translate(-87.845 -78.375)"/></g><path class="d" d="M47.792,101.937v-.114A6.112,6.112,0,0,1,53.9,95.712H71.642a6.114,6.114,0,0,1,5.742,4.014,24.057,24.057,0,0,1-29.592,2.211Z" transform="translate(-36.856 -24.659)"/><g transform="translate(1.769)"><path class="e" d="M35.393,69.276c3.926-1.369,5.847-4.144,4.844-11.026-1.162-7.957-3.1-31.012,8.582-46.8a3.77,3.77,0,0,1,1.543,1.267s-5.08,12.172-.784,36.344a80.222,80.222,0,0,1,7.7-3.592S56.03,26.048,65.86,13.459a3.605,3.605,0,0,1,1.474.84S63.022,25.7,66.9,48.071a6.633,6.633,0,0,1,6.406,3.535,6.711,6.711,0,0,1-.7,7.315c3.677-1.1,7.081-2.249,7.081-2.249a1.612,1.612,0,0,1,1.3,1.086s-.4,17.51-20.184,21.079c-16.8,3.02-22.472-5.45-22.472-5.45a7.942,7.942,0,0,0,3.327-1.039C39.485,72.51,36.166,71.119,35.393,69.276Z" transform="translate(-35.393 -2.986)"/><path class="f" d="M61.184,3.986S56.4,8.7,54.877,9.88a15.28,15.28,0,0,1-1.684-1.035A54.361,54.361,0,0,1,54.9,0,16.5,16.5,0,0,1,61.184,3.986Z" transform="translate(-40.033)"/><path class="f" d="M84.541,6.355s-4.745,4.426-6.722,5.9a11.652,11.652,0,0,0-1.737-.807A67.612,67.612,0,0,1,78.2,1.909,27.491,27.491,0,0,1,84.541,6.355Z" transform="translate(-45.999 -0.498)"/><g class="g" transform="translate(34.002 60.138)"><ellipse class="h" cx="0.461" cy="0.434" rx="0.461" ry="0.434" transform="translate(3.919)"/><ellipse class="h" cx="0.461" cy="0.434" rx="0.461" ry="0.434" transform="translate(2.659 3.203)"/><ellipse class="h" cx="0.461" cy="0.434" rx="0.461" ry="0.434" transform="translate(0 1.012)"/></g><circle class="i" cx="2.585" cy="2.585" r="2.585" transform="translate(10.811 62.862)"/><path class="f" d="M93.614,72.374a1.6,1.6,0,0,1,1.286,1.07,19.184,19.184,0,0,1-.69,4.106,9.629,9.629,0,0,1-5.422-3.638C91.49,73.087,93.614,72.374,93.614,72.374Z" transform="translate(-49.311 -18.647)"/><path class="j" d="M64.995,50.507a7.43,7.43,0,0,1,3.1,3.9l-3.1,1.089A43.147,43.147,0,0,1,64.995,50.507Z" transform="translate(-43.09 -13.014)"/><path class="k" d="M56.207,59.6c-.148-.512-.3-1.051-.472-1.553a1.1,1.1,0,0,0-.6-.682,1.067,1.067,0,0,0-.9.011,30.577,30.577,0,0,0-7.172,4.84.739.739,0,0,0-.16.845c.067.142.137.284.211.43a.658.658,0,0,0,.383.334.644.644,0,0,0,.5-.042,52.761,52.761,0,0,1,7.714-3.226.786.786,0,0,0,.492-.961Z" transform="translate(-38.377 -14.752)"/><path class="k" d="M80.524,57.85a42.822,42.822,0,0,0-8.271-.1.792.792,0,0,1-.824-.626c-.339-1.423-.227-.947-.4-1.732-.229-1.061.621-1.248,1.427-1.3a20.957,20.957,0,0,1,8.4,1.749.857.857,0,0,1,.452.945,5.492,5.492,0,0,1-.155.624A.608.608,0,0,1,80.524,57.85Z" transform="translate(-44.673 -13.942)"/><ellipse class="l" cx="5.405" cy="5.411" rx="5.405" ry="5.411" transform="translate(10.34 49.143)"/><ellipse class="l" cx="5.405" cy="5.411" rx="5.405" ry="5.411" transform="translate(26.792 46.308)"/><circle class="m" cx="1.645" cy="1.645" r="1.645" transform="translate(15.041 52.902)"/><path class="n" d="M50.651,68.523a5.324,5.324,0,0,1,3.987-2.347,5.75,5.75,0,0,1,4.472,1.553Z" transform="translate(-39.37 -17.052)"/><circle class="m" cx="1.645" cy="1.645" r="1.645" transform="translate(31.021 49.595)"/><path class="o" d="M72.9,64.709a5.4,5.4,0,0,1,8.012-1.03Z" transform="translate(-45.17 -16.072)"/><path class="p" d="M68.171,92.3C64.844,94.368,65.9,96,65.9,96a8.516,8.516,0,0,1-5.5-4.015,1.183,1.183,0,0,1,.22-1.631l3.811,1.75Z" transform="translate(-41.85 -23.264)"/><path class="l" d="M65.913,92.937a2.764,2.764,0,0,0,.444,1.647,10.633,10.633,0,0,0,3.9,0,4.38,4.38,0,0,0,.347-1.681Z" transform="translate(-43.347 -23.927)"/><path class="p" d="M60.6,89.721s4.008,3.152,8.6,1.548a1.621,1.621,0,0,1,.217.9s-5.145,1.264-8.576-1.538l-.418.26s.752,3,5.445,5.023a3.4,3.4,0,0,1-.267.863s-4.921-1.655-6.049-6.153Z" transform="translate(-41.69 -23.098)"/></g></svg>